<?xml version="1.0" encoding="utf-8"?>
<!-- Generator: Adobe Illustrator 23.1.1, SVG Export Plug-In . SVG Version: 6.00 Build 0)  -->
<svg version="1.1" id="Layer_1" xmlns="http://www.w3.org/2000/svg" xmlns:xlink="http://www.w3.org/1999/xlink" x="0px" y="0px"
	 viewBox="0 0 340 340" style="enable-background:new 0 0 340 340;" xml:space="preserve">
<style type="text/css">
	.st0{fill-rule:evenodd;clip-rule:evenodd;fill:#57D0FD;}
	.st1{fill:#043487;}
</style>
<title>Icon / Community</title>
<desc>Created with Sketch.</desc>
<g id="Logo-Animation-1-Copy-3" transform="translate(-1405.000000, -1040.000000)">
	<g transform="translate(1405.000000, 1040.000000)">
		<circle id="Background" class="st0" cx="170" cy="170" r="170"/>
	</g>
</g>
<g id="Outlines" transform="translate(82.000000, 82.000000)">
	<g id="Group-41" transform="translate(14.000000, 15.666667)">
		<path id="Stroke-3" class="st1" d="M74,62.9c5.2,0,9.3,4.2,9.3,9.3c0,5.2-4.2,9.3-9.3,9.3s-9.3-4.2-9.3-9.3
			C64.7,67,68.8,62.9,74,62.9z M74,66.9c-2.9,0-5.3,2.4-5.3,5.3s2.4,5.3,5.3,5.3s5.3-2.4,5.3-5.3S76.9,66.9,74,66.9z"/>
		<path id="Stroke-5" class="st1" d="M74,103.2c5.2,0,9.3,4.2,9.3,9.3c0,5.2-4.2,9.3-9.3,9.3s-9.3-4.2-9.3-9.3
			C64.7,107.4,68.8,103.2,74,103.2z M74,107.2c-2.9,0-5.3,2.4-5.3,5.3c0,2.9,2.4,5.3,5.3,5.3s5.3-2.4,5.3-5.3
			C79.3,109.6,76.9,107.2,74,107.2z"/>
		<path id="Stroke-7" class="st1" d="M66.8,145.7v-7.3c0-4,3.2-7.2,7.2-7.2s7.2,3.2,7.2,7.2v7.3h4v-7.3c0-6.2-5-11.2-11.2-11.2
			s-11.2,5-11.2,11.2v7.3H66.8z"/>
		<path id="Stroke-9" class="st1" d="M107.2,97.4c3.1,3.9,2.5,9.7-1.3,12.9c-3.9,3.3-9.8,2.8-13.1-1.1c-3.3-4-2.8-9.8,1.1-13.2
			c3.9-3.3,9.6-2.8,13,0.9l0.2,0.2L107.2,97.4z M103.9,99.7l-0.2-0.2c-1.9-2.1-5.2-2.3-7.3-0.5c-2.3,1.9-2.5,5.3-0.7,7.5
			c1.9,2.3,5.3,2.5,7.5,0.7C105.5,105.3,105.8,102,103.9,99.7z"/>
		<path id="Stroke-11" class="st1" d="M115.6,133.1l-4.7-5.6c-2.5-3-2.2-7.6,0.9-10.1c3-2.5,7.6-2.1,10.1,0.9l4.7,5.6l3.1-2.6
			l-4.7-5.6c-4-4.7-11-5.3-15.7-1.4c-4.7,4-5.3,11-1.4,15.7l4.7,5.6L115.6,133.1z"/>
		<path id="Stroke-13" class="st1" d="M115.5,70.2c4.9,1,8.2,5.8,7.3,10.8c-0.9,5.1-5.7,8.5-10.8,7.6c-5.1-0.9-8.5-5.7-7.6-10.8
			c0.9-5,5.6-8.3,10.5-7.6l0.3,0L115.5,70.2z M114.5,74.1l-0.2,0c-2.8-0.4-5.5,1.5-6,4.4c-0.5,2.9,1.4,5.7,4.3,6.2
			c2.9,0.5,5.7-1.4,6.2-4.3C119.4,77.3,117.4,74.6,114.5,74.1z"/>
		<path id="Stroke-15" class="st1" d="M145,92.1l-7.2-1.3c-3.9-0.7-6.5-4.4-5.8-8.3c0.7-3.9,4.4-6.5,8.3-5.8l7.2,1.3l0.7-3.9
			l-7.2-1.3c-6.1-1.1-11.9,3-12.9,9.1c-1.1,6.1,3,11.9,9.1,12.9l7.2,1.3L145,92.1z"/>
		<path id="Stroke-17" class="st1" d="M117,47.8c2.4,4.4,0.8,10-3.5,12.5c-4.5,2.6-10.2,1.1-12.8-3.4c-2.6-4.5-1-10.2,3.4-12.8
			c4.4-2.5,10-1.1,12.6,3.2l0.1,0.2L117,47.8z M113.4,49.6l-0.1-0.2c-1.5-2.4-4.7-3.2-7.2-1.8c-2.6,1.5-3.4,4.7-2,7.3
			c1.5,2.5,4.7,3.4,7.3,1.9C114,55.4,114.9,52.1,113.4,49.6z"/>
		<path id="Stroke-19" class="st1" d="M141.1,41.9l-6.3,3.7c-3.4,2-7.8,0.8-9.8-2.6c-2-3.4-0.8-7.8,2.6-9.8l6.3-3.7l-2-3.5l-6.3,3.7
			c-5.3,3.1-7.2,9.9-4.1,15.3c3.1,5.3,9.9,7.2,15.3,4.1l6.3-3.7L141.1,41.9z"/>
		<path id="Stroke-21" class="st1" d="M91.2,25.9c4.7,1.9,7.1,7.1,5.3,11.9c-1.8,4.8-7.1,7.3-12,5.6c-4.8-1.8-7.3-7.1-5.6-12
			c1.7-4.8,6.9-7.3,11.7-5.7l0.3,0.1L91.2,25.9z M89.6,29.5l-0.2-0.1c-2.7-0.9-5.6,0.6-6.6,3.3c-1,2.8,0.4,5.8,3.2,6.8
			c2.8,1,5.8-0.4,6.8-3.2C93.8,33.6,92.3,30.6,89.6,29.5z"/>
		<path id="Stroke-23" class="st1" d="M105.8,5.9l-2.5,6.9c-1.4,3.7-5.5,5.6-9.2,4.3c-3.7-1.4-5.6-5.5-4.3-9.2L92.3,1l-3.8-1.4
			l-2.5,6.9C84,12.3,87,18.7,92.8,20.8c5.8,2.1,12.2-0.9,14.3-6.7l2.5-6.9L105.8,5.9z"/>
		<path id="Stroke-25" class="st1" d="M69,31.4c1.8,4.8-0.7,10.2-5.6,12c-4.8,1.8-10.2-0.7-12-5.6c-1.8-4.8,0.7-10.2,5.6-12
			C61.9,24,67.3,26.5,69,31.4z M65.3,32.7c-1-2.8-4.1-4.2-6.8-3.2c-2.8,1-4.2,4.1-3.2,6.8c1,2.8,4.1,4.2,6.8,3.2
			C64.8,38.6,66.3,35.5,65.3,32.7z"/>
		<path id="Stroke-27" class="st1" d="M55.7,1l2.5,6.9c1.4,3.7-0.6,7.8-4.3,9.2c-3.7,1.4-7.8-0.6-9.2-4.3l-2.5-6.9l-3.8,1.4l2.5,6.9
			c2.1,5.8,8.5,8.8,14.3,6.7c5.8-2.1,8.8-8.5,6.7-14.3l-2.5-6.9L55.7,1z"/>
		<path id="Stroke-29" class="st1" d="M44.1,44.3c4.3,2.6,5.7,8.2,3.2,12.6c-2.6,4.5-8.3,6-12.7,3.4c-4.5-2.6-6-8.3-3.4-12.7
			c2.5-4.4,8.1-5.9,12.5-3.6l0.2,0.1L44.1,44.3z M41.9,47.6l-0.2-0.1c-2.5-1.3-5.6-0.4-7.1,2.1c-1.5,2.5-0.6,5.8,1.9,7.3
			c2.6,1.5,5.8,0.6,7.3-2C45.3,52.3,44.4,49.1,41.9,47.6z"/>
		<path id="Stroke-31" class="st1" d="M14.1,29.5l6.3,3.7c3.4,2,4.6,6.4,2.6,9.8c-2,3.4-6.4,4.6-9.8,2.6l-6.3-3.7l-2,3.5l6.3,3.7
			c5.3,3.1,12.2,1.3,15.3-4.1c3.1-5.3,1.3-12.2-4.1-15.3L16.1,26L14.1,29.5z"/>
		<path id="Stroke-33" class="st1" d="M43.6,77.7c0.9,5.1-2.5,9.9-7.6,10.8c-5.1,0.9-9.9-2.5-10.8-7.6c-0.9-5.1,2.5-9.9,7.6-10.8
			C37.9,69.2,42.7,72.6,43.6,77.7z M39.7,78.4c-0.5-2.9-3.3-4.8-6.2-4.3c-2.9,0.5-4.8,3.3-4.3,6.2c0.5,2.9,3.3,4.8,6.2,4.3
			C38.2,84.1,40.2,81.3,39.7,78.4z"/>
		<path id="Stroke-35" class="st1" d="M0.5,78l7.2-1.3c3.9-0.7,7.6,1.9,8.3,5.8c0.7,3.9-1.9,7.6-5.8,8.3L3,92.1l0.7,3.9l7.2-1.3
			c6.1-1.1,10.1-6.9,9.1-12.9c-1.1-6.1-6.9-10.1-12.9-9.1l-7.2,1.3L0.5,78z"/>
		<path id="Stroke-37" class="st1" d="M54.4,96.2c3.7,3.3,4.2,9.1,0.9,13c-3.3,3.9-9.2,4.5-13.1,1.1c-3.9-3.3-4.5-9.2-1.1-13.1
			c3.3-3.9,9-4.4,12.9-1.3l0.2,0.2L54.4,96.2z M51.4,98.9c-2.3-1.7-5.5-1.4-7.3,0.8c-1.9,2.3-1.6,5.6,0.7,7.5
			c2.3,1.9,5.6,1.6,7.5-0.7c1.8-2.2,1.6-5.4-0.5-7.4L51.6,99L51.4,98.9z"/>
		<path id="Stroke-39" class="st1" d="M21.4,123.9l4.7-5.6c2.5-3,7.1-3.4,10.1-0.9c3,2.5,3.4,7.1,0.9,10.1l-4.7,5.6l3.1,2.6l4.7-5.6
			c4-4.7,3.4-11.8-1.4-15.7c-4.7-4-11.8-3.3-15.7,1.4l-4.7,5.6L21.4,123.9z"/>
	</g>
</g>
</svg>
