<?xml version="1.0" encoding="UTF-8"?>
<svg width="340px" height="340px" viewBox="0 0 340 340" version="1.1" xmlns="http://www.w3.org/2000/svg" xmlns:xlink="http://www.w3.org/1999/xlink">
    <!-- Generator: Sketch 59.1 (86144) - https://sketch.com -->
    <title>Icon / Economic Opportunity</title>
    <desc>Created with Sketch.</desc>
    <g id="Page-1" stroke="none" stroke-width="1" fill="none" fill-rule="evenodd">
        <g id="Logo-Animation-1-Copy-3" transform="translate(-1880.000000, -1417.000000)">
            <g id="Icon-/-Economic-Opportunity" transform="translate(1880.000000, 1417.000000)">
                <circle id="Background" fill="#FFC943" cx="170" cy="170" r="170"></circle>
                <g id="Outlines" transform="translate(82.000000, 82.000000)">
                    <polygon id="Fill-1" points="0 176 176 176 176 0 0 0"></polygon>
                    <polygon id="Fill-2" points="14.8573333 161.524 161.142667 161.524 161.142667 14.8573333 14.8573333 14.8573333"></polygon>
                    <g id="Group-33" transform="translate(26.666667, 31.333333)" fill="#BB5D00" fill-rule="nonzero">
                        <path d="M28.3333333,115.882067 L94.3333333,115.882067 C95.4379028,115.882067 96.3333333,114.986636 96.3333333,113.882067 C96.3333333,112.777497 95.4379028,111.882067 94.3333333,111.882067 L28.3333333,111.882067 C27.2287638,111.882067 26.3333333,112.777497 26.3333333,113.882067 C26.3333333,114.986636 27.2287638,115.882067 28.3333333,115.882067 Z" id="Stroke-3"></path>
                        <path d="M63.3333333,113.882067 L63.3333333,36.8820667 C63.3333333,35.7774972 62.4379028,34.8820667 61.3333333,34.8820667 C60.2287638,34.8820667 59.3333333,35.7774972 59.3333333,36.8820667 L59.3333333,113.882067 C59.3333333,114.986636 60.2287638,115.882067 61.3333333,115.882067 C62.4379028,115.882067 63.3333333,114.986636 63.3333333,113.882067 Z" id="Stroke-4"></path>
                        <path d="M61.3333333,20.2154 C66.4859028,20.2154 70.6666667,24.3961638 70.6666667,29.5487333 C70.6666667,34.7013028 66.4859028,38.8820667 61.3333333,38.8820667 C56.1807638,38.8820667 52,34.7013028 52,29.5487333 C52,24.3961638 56.1807638,20.2154 61.3333333,20.2154 Z M61.3333333,24.2154 C58.3899028,24.2154 56,26.6053028 56,29.5487333 C56,32.4921638 58.3899028,34.8820667 61.3333333,34.8820667 C64.2767638,34.8820667 66.6666667,32.4921638 66.6666667,29.5487333 C66.6666667,26.6053028 64.2767638,24.2154 61.3333333,24.2154 Z" id="Stroke-5"></path>
                        <path d="M121.833333,71.5487333 C122.937903,71.5487333 123.833333,72.4441638 123.833333,73.5487333 C123.833333,84.7806362 114.731903,93.8820667 103.5,93.8820667 C92.2680972,93.8820667 83.1666667,84.7806362 83.1666667,73.5487333 C83.1666667,72.4441638 84.0620972,71.5487333 85.1666667,71.5487333 L121.833333,71.5487333 Z M87.2878089,75.5487333 C88.2735266,83.6275455 95.1543337,89.8820667 103.5,89.8820667 C111.731342,89.8820667 118.537683,83.7977286 119.668375,75.8797009 L119.712191,75.5487333 L87.2878089,75.5487333 Z" id="Stroke-7"></path>
                        <path d="M37.5,71.5487333 C38.6045695,71.5487333 39.5,72.4441638 39.5,73.5487333 C39.5,84.7806362 30.3985695,93.8820667 19.1666667,93.8820667 C7.93476383,93.8820667 -1.16666667,84.7806362 -1.16666667,73.5487333 C-1.16666667,72.4441638 -0.271236166,71.5487333 0.833333333,71.5487333 L37.5,71.5487333 Z M2.95447561,75.5487333 C3.9401933,83.6275455 10.8210003,89.8820667 19.1666667,89.8820667 C27.3980088,89.8820667 34.2043499,83.7977286 35.3350415,75.8797009 L35.3788577,75.5487333 L2.95447561,75.5487333 Z" id="Stroke-9"></path>
                        <path d="M8.16666667,31.5487333 L54,31.5487333 C55.1045695,31.5487333 56,30.6533028 56,29.5487333 C56,28.4441638 55.1045695,27.5487333 54,27.5487333 L8.16666667,27.5487333 C7.06209717,27.5487333 6.16666667,28.4441638 6.16666667,29.5487333 C6.16666667,30.6533028 7.06209717,31.5487333 8.16666667,31.5487333 Z" id="Stroke-11"></path>
                        <path d="M70.5,31.5487333 L112.666667,31.5487333 C113.771236,31.5487333 114.666667,30.6533028 114.666667,29.5487333 C114.666667,28.4441638 113.771236,27.5487333 112.666667,27.5487333 L70.5,27.5487333 C69.3954305,27.5487333 68.5,28.4441638 68.5,29.5487333 C68.5,30.6533028 69.3954305,31.5487333 70.5,31.5487333 Z" id="Stroke-13"></path>
                        <path d="M2.67948718,74.3179641 L21.0128205,30.3179641 C21.4376549,29.2983615 20.9555001,28.1274139 19.9358974,27.7025795 C18.9162948,27.2777451 17.7453472,27.7598999 17.3205128,28.7795026 L-1.01282051,72.7795026 C-1.43765494,73.7991052 -0.955500051,74.9700528 0.0641025641,75.3948872 C1.08370518,75.8197216 2.25465276,75.3375667 2.67948718,74.3179641 Z" id="Stroke-15"></path>
                        <path d="M39.3461538,72.7795026 L21.0128205,28.7795026 C20.5879861,27.7598999 19.4170385,27.2777451 18.3974359,27.7025795 C17.3778333,28.1274139 16.8956784,29.2983615 17.3205128,30.3179641 L35.6538462,74.3179641 C36.0786806,75.3375667 37.2496282,75.8197216 38.2692308,75.3948872 C39.2888334,74.9700528 39.7709883,73.7991052 39.3461538,72.7795026 Z" id="Stroke-17"></path>
                        <path d="M87.0128205,74.3179641 L105.346154,30.3179641 C105.770988,29.2983615 105.288833,28.1274139 104.269231,27.7025795 C103.249628,27.2777451 102.078681,27.7598999 101.653846,28.7795026 L83.3205128,72.7795026 C82.8956784,73.7991052 83.3778333,74.9700528 84.3974359,75.3948872 C85.4170385,75.8197216 86.5879861,75.3375667 87.0128205,74.3179641 Z" id="Stroke-19"></path>
                        <path d="M123.679487,72.7795026 L105.346154,28.7795026 C104.921319,27.7598999 103.750372,27.2777451 102.730769,27.7025795 C101.711167,28.1274139 101.229012,29.2983615 101.653846,30.3179641 L119.987179,74.3179641 C120.412014,75.3375667 121.582961,75.8197216 122.602564,75.3948872 C123.622167,74.9700528 124.104322,73.7991052 123.679487,72.7795026 Z" id="Stroke-21"></path>
                        <path d="M63.3333333,14.8820667 L63.3333333,0.2154 C63.3333333,-0.8891695 62.4379028,-1.7846 61.3333333,-1.7846 C60.2287638,-1.7846 59.3333333,-0.8891695 59.3333333,0.2154 L59.3333333,14.8820667 C59.3333333,15.9866362 60.2287638,16.8820667 61.3333333,16.8820667 C62.4379028,16.8820667 63.3333333,15.9866362 63.3333333,14.8820667 Z" id="Stroke-23"></path>
                        <path d="M70.3987048,17.8477887 L77.7320381,5.14645533 C78.284335,4.1898771 77.9566002,2.96669213 77.000022,2.41439523 C76.0434438,1.86209833 74.8202588,2.1898331 74.2679619,3.14641133 L66.9346286,15.8477447 C66.3823317,16.8043229 66.7100664,18.0275079 67.6666447,18.5798048 C68.6232229,19.1321017 69.8464079,18.8043669 70.3987048,17.8477887 Z" id="Stroke-25"></path>
                        <path d="M75.034322,23.9474381 L87.7356553,16.6141048 C88.6922336,16.0618079 89.0199683,14.8386229 88.4676714,13.8820447 C87.9153745,12.9254664 86.6921896,12.5977317 85.7356113,13.1500286 L73.034278,20.4833619 C72.0776998,21.0356588 71.749965,22.2588438 72.3022619,23.215422 C72.8545588,24.1720002 74.0777438,24.499735 75.034322,23.9474381 Z" id="Stroke-27"></path>
                        <path d="M55.7320381,15.8477447 L48.3987048,3.14641133 C47.8464079,2.1898331 46.6232229,1.86209833 45.6666447,2.41439523 C44.7100664,2.96669213 44.3823317,4.1898771 44.9346286,5.14645533 L52.2679619,17.8477887 C52.8202588,18.8043669 54.0434438,19.1321017 55.000022,18.5798048 C55.9566002,18.0275079 56.284335,16.8043229 55.7320381,15.8477447 Z" id="Stroke-29"></path>
                        <path d="M49.6323887,20.4833619 L36.9310553,13.1500286 C35.9744771,12.5977317 34.7512921,12.9254664 34.1989952,13.8820447 C33.6466983,14.8386229 33.9744331,16.0618079 34.9310113,16.6141048 L47.6323447,23.9474381 C48.5889229,24.499735 49.8121079,24.1720002 50.3644048,23.215422 C50.9167017,22.2588438 50.5889669,21.0356588 49.6323887,20.4833619 Z" id="Stroke-31"></path>
                    </g>
                </g>
            </g>
        </g>
    </g>
</svg>