<?xml version="1.0" encoding="UTF-8"?>
<svg width="340px" height="340px" viewBox="0 0 340 340" version="1.1" xmlns="http://www.w3.org/2000/svg" xmlns:xlink="http://www.w3.org/1999/xlink">
    <!-- Generator: Sketch 59.1 (86144) - https://sketch.com -->
    <title>Icon / Health</title>
    <desc>Created with Sketch.</desc>
    <g id="Page-1" stroke="none" stroke-width="1" fill="none" fill-rule="evenodd">
        <g id="Logo-Animation-1-Copy-3" transform="translate(-1880.000000, -1040.000000)">
            <g id="Icon-/-Health" transform="translate(1880.000000, 1040.000000)">
                <circle id="Background" fill="#FFA1B0" cx="170" cy="170" r="170"></circle>
                <g id="Outlines" transform="translate(82.000000, 82.000000)">
                    <polygon id="Fill-1" points="0 176 176 176 176 0 0 0"></polygon>
                    <polygon id="Fill-2" points="14.8573333 161.524 161.142667 161.524 161.142667 14.8573333 14.8573333 14.8573333"></polygon>
                    <path d="M108.7361,46.0757 C101.230433,46.0757 93.7211,48.9430333 87.9937667,54.6740333 C82.2627667,48.9393667 74.7571,46.0757 67.2551,46.0757 C59.7494333,46.0757 52.2401,48.9430333 46.5091,54.6740333 C35.0507667,66.1323667 35.0507667,84.6930333 46.5091,96.1550333 L87.9937667,137.6397 L129.474767,96.1550333 C135.209433,90.4277 138.058433,82.9073667 138.0841,75.4127 C138.058433,67.9217 135.209433,60.4013667 129.474767,54.6740333 C123.747433,48.9393667 116.241767,46.0757 108.7361,46.0757 M67.2551,49.7423667 C74.1081,49.7423667 80.5504333,52.4153667 85.4014333,57.2663667 L87.9937667,59.8587 L90.5861,57.2663667 C95.4371,52.4153667 101.8831,49.7423667 108.739767,49.7423667 C115.5891,49.7423667 122.0351,52.4153667 126.882433,57.2663667 C131.722433,62.0990333 134.395433,68.5487 134.417433,75.4017 C134.395433,82.2767 131.722433,88.7300333 126.882433,93.5627 L87.9937667,132.455033 L49.1014333,93.5627 C44.2541,88.7117 41.5847667,82.2657 41.5847667,75.4127 C41.5847667,68.5597 44.2541,62.1137 49.1014333,57.2663667 C53.9524333,52.4153667 60.3984333,49.7423667 67.2551,49.7423667" id="Fill-3" fill="#A91865"></path>
                </g>
            </g>
        </g>
    </g>
</svg>