<?xml version="1.0" encoding="UTF-8"?>
<svg width="340px" height="340px" viewBox="0 0 340 340" version="1.1" xmlns="http://www.w3.org/2000/svg" xmlns:xlink="http://www.w3.org/1999/xlink">
    <!-- Generator: Sketch 59.1 (86144) - https://sketch.com -->
    <title>Icon / Learning</title>
    <desc>Created with Sketch.</desc>
    <g id="Page-1" stroke="none" stroke-width="1" fill="none" fill-rule="evenodd">
        <g id="Logo-Animation-1-Copy-3" transform="translate(-1880.000000, -631.000000)">
            <g id="Icon-/-Learning" transform="translate(1880.000000, 631.000000)">
                <circle id="Background" fill="#FF8660" cx="170" cy="170" r="170"></circle>
                <g id="Outlines" transform="translate(82.000000, 84.000000)">
                    <polygon id="Fill-1" points="0 176 176 176 176 0 0 0"></polygon>
                    <polygon id="Fill-2" points="14.8573333 161.524 161.142667 161.524 161.142667 14.8573333 14.8573333 14.8573333"></polygon>
                    <g id="Group-11" transform="translate(14.000000, 30.333333)" fill="#901414">
                        <path d="M117.9285,64.2468667 L114.335167,66.3332 L114.335167,91.0135333 C114.184833,91.7468667 112.171833,93.6168667 109.1615,95.0432 C109.1285,95.0798667 109.091833,95.0798667 109.0515,95.1202 L74.0018333,112.606533 L38.9485,95.1202 C38.9081667,95.0798667 38.8715,95.0798667 38.8385,95.0432 C35.8281667,93.6168667 33.8151667,91.7468667 33.6685,91.0502 L33.6685,66.3332 L30.0715,64.2468667 C30.0348333,64.6135333 30.0018333,65.0168667 30.0018333,65.3835333 L30.0018333,91.0502 C30.0018333,95.1202 37.3351667,98.3835333 37.3351667,98.3835333 L72.3481667,115.9102 C72.8651667,116.1632 73.4481667,116.2732 74.0018333,116.2732 C74.5518333,116.2732 75.1348333,116.1632 75.6518333,115.9102 L110.6685,98.3835333 C110.6685,98.3835333 118.001833,95.1202 118.001833,91.0502 L118.001833,65.3835333 C118.001833,65.0168667 117.965167,64.6135333 117.9285,64.2468667" id="Fill-3"></path>
                        <path d="M1.08578644,76.8011864 C0.304737854,77.582235 0.304737854,78.848565 1.08578644,79.6296136 C1.86683502,80.4106621 3.13316498,80.4106621 3.91421356,79.6296136 L11.2475469,72.2962802 C11.6226197,71.9212075 11.8333333,71.4124996 11.8333333,70.8820667 L11.8333333,56.2154 C11.8333333,55.1108305 10.9379028,54.2154 9.83333333,54.2154 C8.72876383,54.2154 7.83333333,55.1108305 7.83333333,56.2154 L7.83333333,70.0536395 L1.08578644,76.8011864 Z" id="Stroke-5" fill-rule="nonzero"></path>
                        <path d="M11.8333333,56.2154 C11.8333333,55.1108305 10.9379028,54.2154 9.83333333,54.2154 C8.72876383,54.2154 7.83333333,55.1108305 7.83333333,56.2154 L7.83333333,70.8820667 C7.83333333,71.4124996 8.04404701,71.9212075 8.41911977,72.2962802 L15.7524531,79.6296136 C16.5335017,80.4106621 17.7998316,80.4106621 18.5808802,79.6296136 C19.3619288,78.848565 19.3619288,77.582235 18.5808802,76.8011864 L11.8333333,70.0536395 L11.8333333,56.2154 Z" id="Stroke-7" fill-rule="nonzero"></path>
                        <path d="M142.127033,50.2750333 L117.927033,64.2487 L114.3337,66.3350333 L76.0903667,88.4083667 C75.4670333,88.7750333 74.7337,88.9583667 74.0003667,88.9583667 C73.2670333,88.9583667 72.5337,88.7750333 71.9103667,88.4083667 L33.6670333,66.3350333 L30.0700333,64.2487 L5.8737,50.2750333 C4.0037,49.2117 3.7837,47.3783667 3.7837,46.6853667 C3.7837,45.9483667 4.0037,44.1150333 5.8737,43.0517 L71.9103667,4.91836667 C72.5337,4.5517 73.2670333,4.36836667 74.0003667,4.36836667 C74.7337,4.36836667 75.4670333,4.5517 76.0903667,4.91836667 L142.127033,43.0517 C143.997033,44.1150333 144.217033,45.9483667 144.217033,46.6853667 C144.217033,47.3783667 143.997033,49.2117 142.127033,50.2750333 M143.960367,39.8617 L77.9237,1.7687 C76.7137,1.0317 75.3570333,0.7017 74.0003667,0.7017 C72.6437,0.7017 71.2870333,1.0317 70.0770333,1.7687 L4.04036667,39.8617 C-1.1663,42.9050333 -1.1663,50.4583667 4.04036667,53.4650333 L30.0003667,68.4617 L33.6670333,70.5883667 L70.0770333,91.6020333 C71.2870333,92.2950333 72.6437,92.6250333 74.0003667,92.6250333 C75.3570333,92.6250333 76.7137,92.2950333 77.9237,91.6020333 L114.3337,70.5883667 L118.000367,68.4617 L143.960367,53.4650333 C149.167033,50.4583667 149.167033,42.9050333 143.960367,39.8617" id="Fill-9"></path>
                    </g>
                </g>
            </g>
        </g>
    </g>
</svg>