<?xml version="1.0" encoding="UTF-8"?>
<svg width="340px" height="340px" viewBox="0 0 340 340" version="1.1" xmlns="http://www.w3.org/2000/svg" xmlns:xlink="http://www.w3.org/1999/xlink">
    <!-- Generator: Sketch 59.1 (86144) - https://sketch.com -->
    <title>Icon / Outlook</title>
    <desc>Created with Sketch.</desc>
    <g id="Page-1" stroke="none" stroke-width="1" fill="none" fill-rule="evenodd">
        <g id="Logo-Animation-1-Copy-3" transform="translate(-1405.000000, -633.000000)">
            <g id="Icon-/-Outlook" transform="translate(1405.000000, 633.000000)">
                <circle id="Background" fill="#9992FF" cx="170" cy="170" r="170"></circle>
                <g id="Outlines" transform="translate(82.000000, 80.000000)">
                    <polygon id="Fill-1" points="0 176 176 176 176 0 0 0"></polygon>
                    <polygon id="Fill-2" points="14.6666667 161.333333 161.333333 161.333333 161.333333 14.6666667 14.6666667 14.6666667"></polygon>
                    <g id="Group-15" transform="translate(14.666667, 29.333333)" fill="#1A0079">
                        <path d="M73.3333333,0.483266667 C65.2336667,0.483266667 58.6666667,7.0466 58.6666667,15.1499333 C58.6666667,23.2496 65.2336667,29.8166 73.3333333,29.8166 C81.433,29.8166 88,23.2496 88,15.1499333 C88,7.0466 81.433,0.483266667 73.3333333,0.483266667 M73.3333333,4.14993333 C79.398,4.14993333 84.3333333,9.08526667 84.3333333,15.1499333 C84.3333333,21.2146 79.398,26.1499333 73.3333333,26.1499333 C67.2686667,26.1499333 62.3333333,21.2146 62.3333333,15.1499333 C62.3333333,9.08526667 67.2686667,4.14993333 73.3333333,4.14993333" id="Fill-3"></path>
                        <path d="M73.3333333,40.8166 C67.2576667,40.8166 62.3333333,45.7409333 62.3333333,51.8166 C62.3333333,57.8886 67.2576667,62.8166 73.3333333,62.8166 C79.409,62.8166 84.3333333,57.8886 84.3333333,51.8166 C84.3333333,45.7409333 79.409,40.8166 73.3333333,40.8166 M73.3333333,44.4832667 C77.3776667,44.4832667 80.6666667,47.7686 80.6666667,51.8166 C80.6666667,55.8609333 77.3776667,59.1499333 73.3333333,59.1499333 C69.289,59.1499333 66,55.8609333 66,51.8166 C66,47.7686 69.289,44.4832667 73.3333333,44.4832667" id="Fill-5"></path>
                        <path d="M97.2312,74.7798333 C95.9808667,74.7798333 94.7122,74.9961667 93.4692,75.4471667 L38.3372,95.5111667 C32.6318667,97.5901667 29.6875333,103.9005 31.7665333,109.6095 C33.3908667,114.079167 37.6075333,116.851167 42.1028667,116.851167 C43.3532,116.851167 44.6218667,116.634833 45.8648667,116.183833 L100.9932,96.1198333 C106.7022,94.0408333 109.646533,87.7268333 107.567533,82.0215 C105.9432,77.5555 101.726533,74.7798333 97.2312,74.7798333 M97.2312,78.4465 C100.3002,78.4465 103.0722,80.3861667 104.120867,83.2718333 C105.506867,87.0778333 103.541533,91.2908333 99.7392,92.6731667 L44.6072,112.740833 C43.8005333,113.034167 42.9535333,113.1845 42.1028667,113.1845 C39.0338667,113.1845 36.2618667,111.241167 35.2132,108.3555 C33.8272,104.556833 35.7925333,100.340167 39.5948667,98.9578333 L94.7232,78.8901667 C95.5335333,78.5968333 96.3805333,78.4465 97.2312,78.4465" id="Fill-7"></path>
                        <path d="M49.4354667,74.7798333 C44.9438,74.7798333 40.7234667,77.5555 39.0991333,82.0215 C37.0201333,87.7268333 39.9644667,94.0408333 45.6734667,96.1198333 L100.8018,116.183833 C102.0448,116.6385 103.313467,116.851167 104.5638,116.851167 C109.055467,116.851167 113.2758,114.079167 114.900133,109.6095 C116.979133,103.9005 114.0348,97.5901667 108.329467,95.5111667 L53.1974667,75.4471667 C51.9544667,74.9961667 50.6858,74.7798333 49.4354667,74.7798333 M49.4391333,78.4465 L49.4391333,78.4465 C50.2861333,78.4465 51.1331333,78.5968333 51.9434667,78.8901667 L107.0718,98.9578333 C110.874133,100.340167 112.839467,104.556833 111.453467,108.3555 C110.4048,111.241167 107.6328,113.1845 104.5638,113.1845 C103.713133,113.1845 102.866133,113.034167 102.059467,112.740833 L46.9274667,92.6731667 C43.1251333,91.2908333 41.1598,87.0778333 42.5458,83.2718333 C43.5944667,80.3861667 46.3664667,78.4465 49.4391333,78.4465" id="Fill-9"></path>
                        <path d="M107.217733,35.7965667 C102.7224,35.7965667 98.5057333,38.5722333 96.8814,43.0382333 C94.8024,48.7435667 97.7467333,55.0575667 103.455733,57.1329 L131.018067,67.1685667 C132.261067,67.6232333 133.5334,67.8322333 134.783733,67.8322333 C139.271733,67.8322333 143.495733,65.0602333 145.120067,60.5942333 C147.1954,54.8852333 144.254733,48.5712333 138.545733,46.4959 L110.979733,36.4639 C109.736733,36.0129 108.468067,35.7965667 107.217733,35.7965667 M107.2214,39.4632333 L107.2214,39.4632333 C108.0684,39.4632333 108.9154,39.6135667 109.725733,39.9069 L137.288067,49.9389 C141.0904,51.3212333 143.055733,55.5415667 141.669733,59.3402333 C140.621067,62.2295667 137.849067,64.1655667 134.783733,64.1655667 C133.9294,64.1655667 133.086067,64.0189 132.275733,63.7219 L104.709733,53.6899 C100.9074,52.3075667 98.9420667,48.0909 100.328067,44.2885667 C101.376733,41.4029 104.148733,39.4632333 107.2214,39.4632333" id="Fill-11"></path>
                        <path d="M39.4489333,35.7965667 C38.1986,35.7965667 36.9299333,36.0129 35.6869333,36.4639 L8.12093333,46.4959 C2.41193333,48.5712333 -0.528733333,54.8852333 1.5466,60.5942333 C3.17093333,65.0602333 7.39126667,67.8322333 11.8829333,67.8322333 C13.1332667,67.8322333 14.4056,67.6232333 15.6486,67.1685667 L43.2109333,57.1329 C48.9199333,55.0575667 51.8642667,48.7435667 49.7852667,43.0382333 C48.1609333,38.5722333 43.9442667,35.7965667 39.4489333,35.7965667 M39.4489333,39.4632333 L39.4489333,39.4632333 C42.5179333,39.4632333 45.2899333,41.4029 46.3386,44.2885667 C47.7246,48.0909 45.7592667,52.3075667 41.9569333,53.6899 L14.3909333,63.7219 C13.5806,64.0189 12.7372667,64.1655667 11.8829333,64.1655667 C8.8176,64.1655667 6.0456,62.2295667 4.99693333,59.3402333 C4.32226667,57.4995667 4.41026667,55.5085667 5.23893333,53.7339 C6.0676,51.9555667 7.53426667,50.6099 9.3786,49.9389 L36.9409333,39.9069 C37.7512667,39.6135667 38.5982667,39.4632333 39.4489333,39.4632333" id="Fill-13"></path>
                    </g>
                </g>
            </g>
        </g>
    </g>
</svg>