<?xml version="1.0" encoding="utf-8"?>
<!-- Generator: Adobe Illustrator 23.1.1, SVG Export Plug-In . SVG Version: 6.00 Build 0)  -->
<svg version="1.1" id="Layer_1" xmlns="http://www.w3.org/2000/svg" xmlns:xlink="http://www.w3.org/1999/xlink" x="0px" y="0px"
	 viewBox="0 0 340 340" style="enable-background:new 0 0 340 340;" xml:space="preserve">
<style type="text/css">
	.st0{fill-rule:evenodd;clip-rule:evenodd;fill:#B7E444;}
	.st1{fill-rule:evenodd;clip-rule:evenodd;fill:#3A8045;}
	.st2{fill:#3A8045;}
</style>
<title>Icon / Place &amp; Planet</title>
<desc>Created with Sketch.</desc>
<g id="Logo-Animation-1-Copy-3" transform="translate(-1405.000000, -1417.000000)">
	<g transform="translate(1405.000000, 1417.000000)">
		<circle id="Background" class="st0" cx="170" cy="170" r="170"/>
		<g id="Outlines" transform="translate(82.000000, 82.000000)">
			<rect id="Rectangle" x="44" y="86" class="st1" width="4" height="61"/>
			<g transform="translate(13.666667, 28.333333)">
				<path id="Stroke-3" class="st2" d="M32.2,0.8c17.3,0,31.3,14,31.3,31.3v29.3c0,17.1-13.7,31.1-30.8,31.3l-0.5,0
					c-17.3,0-31.3-14-31.3-31.3V32.2C0.8,14.9,14.9,0.8,32.2,0.8z M32.2,4.8C17.1,4.8,4.8,17.1,4.8,32.2v29.3
					c0,15.1,12.2,27.3,27.3,27.3l0.5,0c14.9-0.2,26.9-12.4,26.9-27.3V32.2C59.5,17.1,47.3,4.8,32.2,4.8z"/>
				<path id="Stroke-11" class="st2" d="M107.8,41.8c0.8-0.8,2-0.8,2.8,0l36.7,36.7c0.4,0.4,0.6,0.9,0.6,1.4v36.7c0,1.1-0.9,2-2,2
					H72.5c-1.1,0-2-0.9-2-2V79.8c0-0.5,0.2-1,0.6-1.4L107.8,41.8z M74.5,80.7v33.8h69.3V80.7L109.2,46L74.5,80.7z"/>
			</g>
		</g>
	</g>
</g>
</svg>
